<?xml version="1.0" encoding="utf-8"?>
<!-- Generator: Adobe Illustrator 22.1.0, SVG Export Plug-In . SVG Version: 6.00 Build 0)  -->
<svg version="1.1" id="Layer_1" xmlns="http://www.w3.org/2000/svg" xmlns:xlink="http://www.w3.org/1999/xlink" x="0px" y="0px"
	 viewBox="0 0 150 150" style="enable-background:new 0 0 150 150;" xml:space="preserve">
<style type="text/css">
	.st0{fill:#5A8DAB;}
</style>
<path class="st0" d="M73.2,9.3c-32.3,0-58.5,26.2-58.5,58.5c0,32.3,26.2,58.5,58.5,58.5c3.6,0,7.2-0.3,10.7-1l27.7,18.9v-32.2
	c12.4-10.7,20.2-26.6,20.2-44.2C131.8,35.5,105.6,9.3,73.2,9.3z M97.4,42.2c6.6,0,12,5.4,12,12c0,6.6-5.4,12-12,12
	c-6.6,0-12-5.4-12-12C85.3,47.6,90.7,42.2,97.4,42.2z M58.5,34.6c8.7,0,15.7,7,15.7,15.7c0,8.7-7,15.7-15.7,15.7
	c-8.7,0-15.7-7-15.7-15.7C42.8,41.6,49.8,34.6,58.5,34.6z M85.8,88.9H30.7c0-0.4,0-0.8,0-1.2c0-10.5,6.1-19.6,15.1-24.1
	c3.2,2.8,7.6,4.6,12.5,4.6s9.3-1.8,12.5-4.6c8.9,4.5,15.1,13.6,15.1,24.1C85.8,88.1,85.8,88.5,85.8,88.9z M90,85.9
	c-0.4-6.7-3.2-12.8-7.6-17.4c1.4-1.2,3-2.3,4.7-3.1c2.6,2.3,6.2,3.7,10.2,3.7c4,0,7.6-1.4,10.2-3.7c7.3,3.6,12.3,11,12.3,19.6
	c0,0.3,0,0.6,0,0.9H90z"/>
</svg>
