<?xml version="1.0" encoding="utf-8"?>
<!-- Generator: Adobe Illustrator 22.1.0, SVG Export Plug-In . SVG Version: 6.00 Build 0)  -->
<svg version="1.1" id="Layer_1" xmlns="http://www.w3.org/2000/svg" xmlns:xlink="http://www.w3.org/1999/xlink" x="0px" y="0px"
	 viewBox="0 0 319 204" style="enable-background:new 0 0 319 204;" xml:space="preserve">
<style type="text/css">
	.st0{fill:#FFFFFF;}
</style>
<g>
	<path class="st0" d="M31.5,38.1c-0.5,0-1.1,0-1.6-0.1c-1.3-0.1-2.4-0.2-3.6-0.2c-1.1,0-2.1-0.2-2.9-0.3c-0.8,0-1.5-0.1-2-0.3
		c-0.4-0.2-0.9-0.4-1.3-0.5c-0.4-0.2-0.6-0.5-0.6-0.9c0-1.8,2.2-2.6,6.7-2.6h6.5c0.7,0.1,1.5,0.1,2.3,0.1c0.8,0,1.6,0,2.4,0
		c0.8,0,1.6,0,2.4,0.1c0.8,0,1.6,0.1,2.4,0.2c3.2,0.2,6.1,0.4,8.6,0.8c2.5,0.4,3.8,0.9,3.9,1.6c0.1,0.3,0,0.5-0.3,0.8
		c-0.2,0.2-0.5,0.4-1.1,0.6c-0.5,0.2-1.3,0.4-2.3,0.6c-1,0.2-2.5,0.3-4.6,0.3c-2.1,0-4.3,0-6.9-0.1c0.1,0.8,0.2,1.7,0.4,2.8
		c0.2,1.6,0.4,4,0.5,7.1c0.2,3.1,0.3,6.7,0.3,10.7c0,4,0.1,8.2,0.1,12.7c0,4.5,0,8.9-0.1,13.2c-0.1,4.3-0.2,8.4-0.4,12.2
		c-0.2,3.8-0.4,7-0.7,9.5c-0.1,1.8-0.3,3.4-0.7,4.8c-0.3,1.3-0.7,2.4-1.1,3.4c-0.5,1-1.1,1.5-1.8,1.5c-2.2,0-3.6-1.3-4-4
		c-0.4-2.6-0.6-6.9-0.4-12.7c0-1.7,0-4.1,0.1-7.2c0-3.1,0.1-6.6,0.2-10.4c0.1-3.9,0.2-7.9,0.3-12.2c0.1-4.3,0.2-8.4,0.4-12.4
		c0.2-4,0.4-7.6,0.7-11c0.3-3.3,0.6-6,0.9-8.1H31.5z"/>
	<path class="st0" d="M89.2,78c0.1,0.2,0.1,0.4,0,0.7c-0.2,0.6-0.6,1.1-1.2,1.5c-3.9,2.3-8.2,3.9-12.6,4.6c-0.1,2.4-0.3,5.5-0.7,9.2
		c-0.4,3.7-1.1,7.3-2.2,10.8c-1.1,3.5-2.6,6.5-4.6,8.9c-2,2.5-4.7,3.6-8,3.4c-2.3-0.1-4.3-0.7-5.9-1.8c-1.6-1.1-2.9-2.5-3.8-4.2
		c-0.9-1.7-1.6-3.5-2-5.5c-0.4-2-0.7-4-0.8-5.8c-0.1-1.9-0.1-3.6,0.1-5.1c0.2-1.5,0.4-2.7,0.5-3.5c0.4-1.7,0.8-3.2,1.3-4.6
		c0.4-1.2,1.1-2.2,1.9-3.1c0.9-0.9,1.9-1.3,3.2-1.2c2.1,0.2,3.1,1.2,3.1,3c0,1.8-0.2,4.3-0.7,7.4c-0.3,1.7-0.4,3.7-0.5,6
		c0,2.3,0,4.5,0.3,6.7c0.2,2.1,0.6,4,1.2,5.4c0.6,1.5,1.4,2.3,2.4,2.4c1.2,0.1,2.2-0.5,3.2-1.7c1-1.3,1.8-3.1,2.5-5.5
		c0.7-2.4,1.2-5.4,1.7-8.9c0.4-3.5,0.8-7.4,0.9-11.7c-3.3-0.2-6.4-0.7-9.2-1.7c-2.8-0.9-5.1-2.2-6.9-3.7c-1.8-1.5-3-3.6-3.7-6.3
		c-0.7-2.7-0.7-5.3,0-7.8c0.7-2.5,2.1-4.6,4.2-6.3c2.1-1.7,5.2-2.3,9.1-1.9c3.1,0.3,5.6,1.5,7.4,3.6c1.8,2.1,3.1,4.4,4,7
		c0.9,2.6,1.5,5,1.7,7.4c0.3,2.4,0.4,4,0.4,4.8c2.1-0.2,4.2-0.5,6.2-0.9c2-0.4,3.8-1.1,5.3-1.9c0.3-0.1,0.6-0.2,0.9-0.3
		c0.3,0,0.5,0,0.7,0.1C88.9,77.3,89.1,77.6,89.2,78z M68.5,80.3c0-0.6,0-1.9-0.1-3.9c0-2-0.3-4.1-0.7-6.2c-0.4-2.2-1.1-4.2-2.1-6
		c-1-1.8-2.4-3-4.3-3.4c-2.6-0.6-4.6-0.3-5.9,1.1c-1.3,1.3-2.1,3-2.3,5.1c-0.2,2.1,0.2,4.2,1.1,6.4c0.9,2.2,2.4,3.8,4.4,4.9
		c1,0.5,2.4,1,4.1,1.3C64.5,79.9,66.4,80.1,68.5,80.3z"/>
	<path class="st0" d="M120.2,92.7c0,0.2,0,0.3-0.1,0.5c-0.1,0.1-0.2,0.3-0.3,0.5c-0.4,0.6-1.3,1.5-2.7,2.8c-1.4,1.2-3.7,2.3-6.7,3.2
		c-0.5,3-1.3,5.6-2.2,7.6c-0.9,2-1.9,3.6-3.1,4.8c-1.2,1.2-2.4,2.1-3.6,2.6c-1.3,0.5-2.5,0.8-3.8,0.8c-0.7,0-1.4,0-2-0.1
		c-0.5-0.1-1.1-0.2-1.7-0.5c-0.6-0.2-1.2-0.6-1.7-1.3c-0.6-0.7-1.1-1.7-1.5-3c-0.4-1.3-0.4-2.8,0-4.6c0.4-1.6,1-3,1.8-4
		c0.9-1.1,1.8-1.9,3-2.6c1.1-0.6,2.4-1.1,3.8-1.4c1.4-0.3,2.8-0.6,4.2-0.9c0.4-2.8,0.6-5.6,0.6-8.5c0-2.9-0.1-5.5-0.5-7.9
		c-0.4-2.3-0.9-4.2-1.7-5.7c-0.8-1.5-1.8-2.2-3.1-2.1c-1.3,0.1-2.4,0.7-3.3,1.7c-0.9,1.1-1.7,2.4-2.4,4c-0.7,1.6-1.2,3.3-1.7,5.2
		c-0.4,1.9-0.8,3.8-1.1,5.6c-0.3,1.8-0.5,3.4-0.7,4.8c-0.1,1.4-0.2,2.5-0.2,3.2c0,4.4,0,9.3,0,14.6c0,5.3-0.1,10.3-0.4,14.9
		c-0.3,4.6-0.7,8.5-1.3,11.8c-0.6,3.2-1.5,4.9-2.6,5c-0.7,0.1-1.3,0-1.9-0.4c-0.4-0.3-0.9-0.8-1.3-1.5c-0.4-0.7-0.7-1.8-0.9-3.4
		c-0.1-1.4-0.2-3.6-0.3-6.4c-0.1-2.8-0.2-6-0.3-9.7c-0.1-3.6-0.1-7.5-0.1-11.6c0-4.1,0-8,0.1-11.9c0-3.8,0.1-7.5,0.3-10.9
		c0.1-3.4,0.3-6.2,0.6-8.5c0.1-1.5,0.3-2.9,0.5-4.2c0.2-1.1,0.5-2.1,0.9-3c0.4-0.9,0.9-1.3,1.5-1.3c2.7,0,4.3,2.5,4.8,7.5
		c1-2.5,2.3-4.7,3.9-6.5c1.6-1.8,3.7-2.8,6.2-2.9c2.8-0.1,5,0.6,6.7,2c1.7,1.4,3,3.4,3.8,5.9c0.9,2.5,1.3,5.4,1.5,8.6
		c0.1,3.2,0,6.6-0.3,10.1c1.3-0.4,2.4-0.8,3.6-1.3c1.1-0.5,2.1-1.2,3-2.2c0.4-0.4,0.9-0.8,1.2-0.9c0.2-0.1,0.4-0.1,0.5-0.1
		c0.5,0,0.9,0.3,0.9,0.9V92.7z M96.1,111.1c0.4,0.2,0.9,0.2,1.3,0c0.4-0.2,0.9-0.4,1.2-0.5c0.4-0.3,0.7-0.6,0.9-0.9
		c1.3-2.1,2.4-4.9,3.2-8.6c-1.3,0.3-2.9,0.8-4.6,1.6c-1.7,0.8-2.8,2.1-3.4,3.9c-0.3,0.7-0.4,1.4-0.4,2c0,0.5,0.1,1.1,0.3,1.5
		C95,110.6,95.4,110.9,96.1,111.1z"/>
	<path class="st0" d="M138.5,94.6v0.5c-0.2,0.5-0.6,0.9-1.3,1.2c-0.2,0.1-0.3,0.1-0.5,0.1c-0.1,0-0.3,0-0.5,0.1
		c-0.5,0-0.9,0-1.2,0.1h-1.6h-1.6c-0.6,0-1.2,0-1.7-0.1c-0.5,0-1.1-0.1-1.6-0.1c-0.4-0.1-0.8-0.1-1.3-0.1c-0.2,0-0.3,0-0.4-0.1
		c-0.1,0-0.2-0.1-0.3-0.1c-0.3,0-0.4,0-0.5-0.1h-0.3c-0.2,0-0.4-0.1-0.5-0.3c-0.5-0.2-0.8-0.6-0.8-1.2c-0.2-1,0-1.7,0.4-2.1
		c0.4-0.6,1.2-0.9,2.2-0.7h1.2c0.6,0,1.2,0,1.6-0.1c0.4,0.1,1,0.1,1.9,0.1c0.9,0,1.6,0,2,0.1c0.4,0,1,0.1,1.9,0.3
		c0.7,0.2,1.2,0.3,1.5,0.4c1.1,0.3,1.6,0.8,1.6,1.6V94.6z"/>
	<path class="st0" d="M164.2,111.2c2.1-0.2,4.1-1.4,5.8-3.6c1.7-2.2,2.7-5.6,2.7-9.9c-0.1-2.5-0.4-4.7-0.9-6.7
		c-0.5-2-1.3-3.9-2.2-5.6c-0.9-1.8-2-3.6-3.4-5.3c-1.3-1.7-2.9-3.6-4.6-5.7c-2.9-3.4-4.8-6.3-5.9-8.5c-1.1-2.3-1.7-3.8-1.9-4.5
		c-0.9-3-1.3-5.8-1.3-8.3c0-2.5,0.3-4.7,0.7-6.6c0.4-2.2,1.1-4.1,2-5.9c0.7-1.3,1.6-2.6,2.7-3.6c1-1,2.2-1.8,3.6-2.6
		c1.4-0.7,3.2-1.1,5.2-1.2c1.2,0,2.3,0.2,3.5,0.5c1,0.3,2,0.7,3.1,1.3c1.1,0.6,2.1,1.5,3,2.6c0.5,0.6,1,1.4,1.4,2.4
		c0.4,0.8,0.7,1.8,1,3c0.3,1.2,0.6,2.5,0.8,3.9c0,0.3,0,0.6,0,0.9c0,0.4,0,0.8-0.1,1.2c0,1.1-0.2,2.2-0.6,3.3
		c-0.4,1.1-1.3,1.5-2.5,1.3c-0.9-0.4-1.5-0.9-1.8-1.6c-0.3-0.9-0.3-2.1,0.1-3.5c0.3-1.4,0.3-3,0.1-4.7c-0.2-1.2-0.5-2.1-1-2.9
		c-0.5-0.8-1-1.4-1.6-1.8c-0.6-0.5-1.3-0.9-2-1.2c-1-0.4-1.8-0.5-2.5-0.4c-0.7,0.1-1.2,0.2-1.7,0.4c-0.8,0.3-1.7,1-2.6,2.1
		c-0.9,1.1-1.6,3.1-1.9,5.8c-0.1,0.5-0.2,1.4-0.3,2.5c-0.1,1.1-0.2,2.4-0.1,3.7c0,1.3,0.2,2.8,0.5,4.2c0.3,1.5,0.8,2.9,1.5,4.2
		c0.5,1.3,1.4,2.9,2.7,4.9c1.3,2,3,4.5,5.4,7.3c2.3,2.9,4.2,5.3,5.6,7.3c0.4,0.6,0.9,1.5,1.5,2.7c0.6,1.2,1.2,2.6,1.8,4.2
		c0.5,1.6,1,3.5,1.3,5.5c0.3,2.1,0.4,4.3,0.2,6.7c-0.1,1.9-0.4,3.7-1.1,5.5c-0.5,1.5-1.3,3.1-2.4,4.8c-1.1,1.7-2.5,3.2-4.3,4.4
		c-1.2,0.7-2.5,1.3-3.9,1.6c-1.3,0.4-2.7,0.6-4.4,0.7c-1.7,0.1-3.5-0.2-5.6-0.8c-1.6-0.4-3-1.1-4.2-2c-1.2-0.9-2.2-1.8-3-2.8
		c-1-1.1-1.7-2.3-2.3-3.6c-0.9-1.5-1.5-3.2-1.7-5c-0.2-1.8-0.3-3.4-0.3-5c0-1.7,0.1-3.4,0.4-5.1c0.4-2,0.9-3.7,1.5-5.1
		c0.7-1.4,1.4-2.6,2.1-3.6c0.8-1.1,1.6-2.1,2.5-3c0.6-0.4,1.2-0.7,1.9-0.8c0.6-0.1,1.2,0.2,1.6,0.9c0.4,0.8,0.4,1.5,0.3,2.1
		c-0.2,0.6-0.5,1.1-1.1,1.7c-0.5,0.5-1.2,1.1-1.9,1.7c-0.7,0.6-1.4,1.4-2,2.3c-0.4,0.5-0.7,1.2-0.9,2c-0.3,0.7-0.5,1.5-0.7,2.4
		c-0.2,0.9-0.3,1.9-0.3,3.1c0,1.1,0.1,2.2,0.3,3.4c0.2,1,0.4,2.1,0.7,3.3c0.3,1.2,0.8,2.4,1.5,3.4c0.7,1.1,1.6,2.1,2.5,3
		c0.8,0.7,1.8,1.4,3.1,2C161,111,162.5,111.3,164.2,111.2z"/>
	<path class="st0" d="M226.2,91.3c1.3,0.3,1.6,1.8,0.8,4.6c-0.2,0.7-0.6,2.4-1.3,5.1c-0.7,2.7-1.6,5.5-2.7,8.4
		c-1.1,2.9-2.5,5.5-4.1,7.8c-1.6,2.3-3.5,3.4-5.6,3.3c-1.1-0.1-2.2-0.4-3.1-0.9c-0.9-0.5-1.7-1.5-2.4-3c-0.7-1.5-1.3-3.5-1.7-6
		c-0.4-2.6-0.7-5.8-0.8-9.9v-8.9c0-0.9,0-2.1-0.1-3.5c0-1.4-0.1-2.9-0.3-4.3c-0.1-1.4-0.3-2.7-0.6-3.8c-0.3-1.1-0.6-1.9-1.1-2.2
		c-0.4-0.3-0.8,0-1.3,0.9c-0.5,0.9-1.1,2.2-1.7,3.8c-0.6,1.6-1.2,3.4-1.7,5.5c-0.6,2.1-1.2,4.2-1.7,6.3c-0.6,2.1-1.1,4.2-1.5,6.2
		c-0.4,2-0.7,3.6-1,5c-0.1,0.6-0.3,1.2-0.7,1.6c-0.3,0.4-0.7,0.8-1.2,1.1c-0.5,0.3-1.2,0.4-1.9,0.3c-0.2,0-0.4-0.1-0.7-0.2
		c-0.3-0.1-0.6-0.5-0.9-1c-0.3-0.5-0.7-1.3-1-2.4c-0.4-1-0.6-2.4-0.8-4.2c-0.2-1.4-0.3-3.6-0.5-6.4c-0.1-2.8-0.2-6-0.3-9.7
		c-0.1-3.6-0.1-7.5-0.1-11.6c0-4.1,0-8,0.1-11.9c0.1-3.9,0.2-7.5,0.3-10.9c0.1-3.4,0.3-6.2,0.6-8.5c0.1-1.5,0.3-2.9,0.5-4.2
		c0.2-1.1,0.5-2.1,0.9-3c0.4-0.9,1-1.3,1.7-1.3c1.8,0,3.1,1.1,4,3.4c0.9,2.3,1.2,6,1,11.1c0,1.4,0,3.5,0,6.3c0,2.8,0,6-0.1,9.5
		c0,3.6-0.1,7.3-0.1,11.3c0,3.9-0.2,7.8-0.3,11.6c0.5-1.8,1.1-3.5,1.7-5.2c0.6-1.7,1.2-3.2,1.9-4.5c0.7-1.3,1.4-2.4,2.2-3.3
		c0.8-0.8,1.6-1.3,2.4-1.4c0.4,0,0.9,0,1.3-0.1c0.4,0,0.8,0,1.3,0.1c1.2,0.1,2.4,0.5,3.4,1.1c1.1,0.6,2,1.7,2.7,3.2
		c0.7,1.5,1.3,3.5,1.7,6c0.4,2.5,0.6,5.6,0.6,9.4c0,0.6,0,1.3-0.1,1.9c0,0.7-0.1,1.4-0.1,2.1c0,2,0,3.9-0.1,5.9c0,2-0.1,3.8-0.1,5.5
		c0,1.7,0,3.2,0,4.4c0,1.2,0,2,0.1,2.4c0.1,0.7,0.4,1.1,1,1.3c0.6,0.1,1.3-0.4,2.3-1.5c0.9-1.2,2-3.1,3.2-5.8
		c1.2-2.7,2.4-6.7,3.8-11.8c0.2-1,0.4-1.8,0.7-2.6c0.2-0.6,0.4-1.2,0.7-1.7C225.7,91.6,226,91.3,226.2,91.3z"/>
	<path class="st0" d="M253.5,91.3c1.3,0.3,1.5,1.8,0.8,4.6c-0.2,0.6-0.4,1.3-0.5,1.9c-0.2,0.5-0.3,1.1-0.5,1.7
		c-0.1,0.6-0.3,1.1-0.5,1.4c-1,3-2.4,5.8-4.3,8.6c-1.9,2.8-4.3,4.7-7.4,5.6c-2.3,0.7-4.8,0.8-7.5,0.1c-1.5-0.4-2.8-1-3.9-2
		c-1.1-1-2-2.2-2.7-3.6c-0.7-1.4-1.3-2.9-1.7-4.6c-0.4-1.7-0.7-3.3-0.9-5c-0.4-3.9-0.4-8.4,0-13.3c0.5-3.6,1.3-6.6,2.4-9.1
		c0.9-2.2,2.1-4,3.8-5.4c1.6-1.5,3.6-1.7,6-0.7c1.5,0.6,2.7,1.8,3.4,3.5c0.8,1.7,1.3,3.7,1.5,5.8c0.2,2.2,0.2,4.5-0.2,6.9
		c-0.4,2.4-0.9,4.7-1.5,6.8c-0.7,2.1-1.5,3.9-2.6,5.5c-1,1.6-2.1,2.5-3.3,2.9c0.3,2.1,0.7,4.1,1.4,5.7c0.7,1.7,1.7,2.6,3,2.8
		c1.4,0.1,2.7-0.2,3.9-0.8c1.2-0.6,2.2-1.5,3.1-2.6c0.9-1.1,1.7-2.2,2.4-3.5c0.7-1.3,1.3-2.5,1.7-3.6c0.2-0.4,0.3-0.9,0.5-1.4
		c0.1-0.5,0.3-1,0.5-1.4c0.2-0.5,0.4-1.1,0.5-1.7c0.2-1,0.4-1.8,0.8-2.6c0.2-0.6,0.4-1.2,0.7-1.7C252.9,91.6,253.2,91.3,253.5,91.3z
		 M233.6,92.3c-0.1,0.6-0.1,1.3-0.1,2c0,0.6,0,1.3,0,2.2c0,0.8,0,1.7,0.1,2.7c0.9-0.7,1.8-2.1,2.8-4.1c0.9-2,1.5-5.1,1.7-9.3
		c0-1.4,0-2.7-0.1-3.9c-0.1-1-0.2-2-0.4-3c-0.2-1-0.5-1.7-0.9-2c-0.4,0-0.7,0.5-1.1,1.6c-0.4,1-0.7,2.5-1,4.6
		C234.2,85.2,233.9,88.2,233.6,92.3z"/>
	<path class="st0" d="M271.2,91.3c0.7,0.2,1.1,0.6,1.3,1.3c0.1,0.7,0,1.8-0.5,3.4c-0.2,0.7-0.5,2-1,4c-0.5,1.9-1.2,3.9-2.2,5.9
		c-0.9,2-2.1,3.8-3.6,5.3c-1.5,1.5-3.3,2.2-5.4,2c-1.2-0.1-2.4-0.4-3.6-0.9c-1.1-0.5-2.1-1.7-2.9-3.7c-0.8-2-1.4-4.9-1.8-8.7
		c-0.4-3.9-0.5-9.2-0.3-16l0.1-13.6c0-6.2,0.1-11.6,0.2-16.3c0.1-4.7,0.4-8.7,0.7-12.1c0.1-1.5,0.3-2.9,0.5-4.2
		c0.2-1.1,0.5-2.1,0.9-3c0.4-0.9,0.9-1.3,1.7-1.3c1.8,0,3.1,1.1,3.9,3.4c0.8,2.3,1.2,6,1,11.1c0,1.3,0,3.1,0,5.4c0,2.2,0,4.8,0,7.7
		c0,2.9,0,6-0.1,9.4c-0.1,3.4-0.2,6.9-0.3,10.5c0,1.5,0,3.5-0.1,5.9c0,2.4-0.1,4.8-0.1,7.3s0,4.6,0.1,6.7c0,2,0.1,3.3,0.2,4
		c0,0.7,0.1,1.6,0.2,2.6c0.1,1,0.7,1.6,1.7,1.7c0.4,0.1,0.8,0,1.3-0.3c0.5-0.3,1.1-0.9,1.7-1.9c0.6-0.9,1.2-2.3,1.9-4
		c0.7-1.7,1.4-3.9,2.2-6.5c0.2-0.9,0.4-1.7,0.7-2.6c0.2-0.7,0.4-1.3,0.7-1.8C270.7,91.6,271,91.3,271.2,91.3z"/>
	<path class="st0" d="M295.6,81.4c-2.2,2.1-4.9,3.5-7.9,4.3c-3,0.8-6.1,1.2-9.2,1.1c1.7,2.9,3.3,6.2,4.7,10
		c1.4,3.8,2.6,7.8,3.6,11.8c1,4.1,1.7,8.1,2.1,12.1c0.4,4,0.4,7.6,0.1,10.8c-0.4,3.2-1.2,5.8-2.4,7.9c-1.3,2.1-3,3.2-5.4,3.4
		c-1.9,0.2-3.5-0.7-4.8-2.5c-1.3-1.8-2.4-4.3-3.3-7.3c-0.9-3-1.6-6.5-2.1-10.3c-0.5-3.9-0.9-7.7-1.2-11.6c-0.2-1.5-0.3-3.5-0.3-6
		c0-2.5,0-4.9-0.1-7.3c-0.1-2.8-0.1-5.6-0.1-8.6c-0.1-3.2-0.2-6.7-0.2-10.5c0-3.8,0-7.5,0.1-11.2c0.1-3.7,0.2-7.2,0.3-10.5
		c0.1-3.4,0.3-6.3,0.6-8.7c0.1-1.5,0.3-2.9,0.5-4.2c0.2-1,0.5-1.9,0.9-2.8c0.4-0.9,0.9-1.3,1.5-1.3c1.8,0,3.2,1.1,4,3.4
		c0.8,2.2,1.2,5.9,1,11c0,1.3,0,2.9,0,5c0,2.1,0,4.5,0,7.1c0,2.6,0,5.4,0,8.4c0,3,0,5.9-0.1,8.9c0.7,0.1,1.5,0.1,2.3,0.1
		c0.8,0,1.6-0.1,2.4-0.2c2-0.2,3.9-0.6,5.8-1.2c1.9-0.6,3.5-1.6,5-3c0.7-0.7,1.4-0.8,2.2-0.1c0.4,0.3,0.6,0.6,0.6,1.1
		C296.1,80.8,295.9,81.1,295.6,81.4z M280.6,135.7c0.8,0.1,1.4-0.7,1.8-2.3c0.4-1.6,0.6-3.7,0.7-6.3c0.1-2.6,0-5.5-0.2-8.7
		c-0.2-3.3-0.6-6.6-1.1-9.9c-0.5-3.3-1.1-6.5-1.9-9.6c-0.8-3.1-1.6-5.8-2.5-8c0,0.5,0,1.1-0.1,1.7c0,0.6-0.1,1.1-0.2,1.7
		c-0.1,2.6-0.1,5.4-0.1,8.5s0,6.1,0.1,9.1c0,3,0.1,6,0.3,8.9c0.1,2.9,0.3,5.4,0.6,7.6c0.3,2.2,0.6,4,1,5.3
		C279.5,135,280,135.7,280.6,135.7z"/>
</g>
<g>
	<path class="st0" d="M29.5,159.7h0.9c0-1.3,0-2,0.1-2.2c0.1-0.5,0.3-0.9,0.7-1.3c0.4-0.3,0.9-0.5,1.6-0.5c0.5,0,1.1,0.1,1.7,0.3
		v1.8c-0.3-0.1-0.6-0.1-0.9-0.1c-0.3,0-0.5,0.1-0.6,0.2c-0.1,0.1-0.1,0.3-0.1,0.5l0,1.2h1.5v2h-1.5v7.5h-2.4v-7.5h-0.9V159.7z"/>
	<path class="st0" d="M46.3,155.7c0.4,0,0.8,0.2,1.1,0.5c0.3,0.3,0.5,0.7,0.5,1.1c0,0.4-0.1,0.8-0.4,1.1c-0.3,0.3-0.7,0.5-1.1,0.5
		c-0.4,0-0.8-0.2-1.1-0.5c-0.3-0.3-0.5-0.7-0.5-1.1c0-0.4,0.1-0.8,0.4-1.1C45.5,155.9,45.8,155.7,46.3,155.7z M45.1,159.7h2.4v9.6
		h-2.4V159.7z"/>
	<path class="st0" d="M59.3,159.7h2.4v1c0.5-0.5,1-0.8,1.5-1c0.4-0.2,0.9-0.3,1.4-0.3c0.9,0,1.8,0.3,2.4,1c0.6,0.6,0.8,1.4,0.8,2.5
		v6.3h-2.4v-4.2c0-1.1-0.1-1.9-0.2-2.3c-0.1-0.4-0.3-0.7-0.5-0.9s-0.6-0.3-0.9-0.3c-0.5,0-0.9,0.2-1.2,0.5s-0.6,0.8-0.7,1.3
		c-0.1,0.3-0.1,0.9-0.1,1.9v3.8h-2.4V159.7z"/>
	<path class="st0" d="M86.7,156h2.4v13.3h-2.4v-1c-0.5,0.4-0.9,0.8-1.4,1c-0.5,0.2-1,0.3-1.5,0.3c-1.2,0-2.3-0.5-3.2-1.4
		c-0.9-1-1.4-2.1-1.4-3.6c0-1.5,0.4-2.7,1.3-3.6s1.9-1.4,3.2-1.4c0.6,0,1.1,0.1,1.6,0.3s1,0.5,1.4,1V156z M84.2,161.7
		c-0.7,0-1.4,0.3-1.8,0.8s-0.7,1.2-0.7,2c0,0.8,0.2,1.5,0.7,2c0.5,0.5,1.1,0.8,1.8,0.8c0.8,0,1.4-0.3,1.9-0.8
		c0.5-0.5,0.7-1.2,0.7-2.1c0-0.8-0.2-1.5-0.7-2C85.6,161.9,85,161.7,84.2,161.7z"/>
	<path class="st0" d="M114.8,159.7h2.5l2.5,6l2.7-6h2.5l-6,13.1h-2.5l2-4.2L114.8,159.7z"/>
	<path class="st0" d="M140.4,159.4c0.9,0,1.8,0.2,2.5,0.7s1.4,1.1,1.9,1.8s0.7,1.6,0.7,2.5c0,0.9-0.2,1.7-0.7,2.5s-1.1,1.4-1.8,1.8
		c-0.8,0.4-1.6,0.7-2.6,0.7c-1.4,0-2.5-0.5-3.5-1.5c-1-1-1.5-2.2-1.5-3.6c0-1.5,0.5-2.7,1.6-3.7C138,159.9,139.1,159.4,140.4,159.4z
		 M140.4,161.7c-0.7,0-1.4,0.3-1.9,0.8c-0.5,0.5-0.7,1.2-0.7,2c0,0.8,0.2,1.5,0.7,2c0.5,0.5,1.1,0.8,1.9,0.8s1.4-0.3,1.9-0.8
		c0.5-0.5,0.7-1.2,0.7-2s-0.2-1.5-0.7-2C141.8,162,141.2,161.7,140.4,161.7z"/>
	<path class="st0" d="M157,159.7h2.4v4.6c0,0.9,0.1,1.5,0.2,1.9c0.1,0.3,0.3,0.6,0.6,0.8c0.3,0.2,0.6,0.3,1,0.3s0.7-0.1,1-0.3
		c0.3-0.2,0.5-0.5,0.6-0.8c0.1-0.3,0.2-0.9,0.2-1.8v-4.7h2.4v4.1c0,1.7-0.1,2.8-0.4,3.4c-0.3,0.8-0.8,1.3-1.4,1.7
		c-0.6,0.4-1.4,0.6-2.4,0.6c-1,0-1.9-0.2-2.5-0.7s-1.1-1.1-1.4-2c-0.2-0.6-0.3-1.6-0.3-3.2V159.7z"/>
	<path class="st0" d="M176.9,159.7h2.1v1.2c0.2-0.5,0.5-0.8,0.9-1.1s0.8-0.4,1.2-0.4c0.3,0,0.6,0.1,1,0.2l-0.7,2.1
		c-0.3-0.1-0.5-0.2-0.7-0.2c-0.4,0-0.7,0.2-0.9,0.7s-0.4,1.4-0.4,2.7l0,0.5v3.9h-2.4V159.7z"/>
	<path class="st0" d="M214.5,156h2.4v13.3h-2.4v-1c-0.5,0.4-0.9,0.8-1.4,1c-0.5,0.2-1,0.3-1.5,0.3c-1.2,0-2.3-0.5-3.2-1.4
		c-0.9-1-1.4-2.1-1.4-3.6c0-1.5,0.4-2.7,1.3-3.6s1.9-1.4,3.2-1.4c0.6,0,1.1,0.1,1.6,0.3c0.5,0.2,1,0.5,1.4,1V156z M212,161.7
		c-0.7,0-1.4,0.3-1.8,0.8c-0.5,0.5-0.7,1.2-0.7,2c0,0.8,0.2,1.5,0.7,2s1.1,0.8,1.8,0.8c0.8,0,1.4-0.3,1.9-0.8
		c0.5-0.5,0.7-1.2,0.7-2.1c0-0.8-0.2-1.5-0.7-2C213.4,161.9,212.7,161.7,212,161.7z"/>
	<path class="st0" d="M228.4,159.7h2.1v1.2c0.2-0.5,0.5-0.8,0.9-1.1s0.8-0.4,1.2-0.4c0.3,0,0.6,0.1,1,0.2l-0.7,2.1
		c-0.3-0.1-0.5-0.2-0.7-0.2c-0.4,0-0.7,0.2-0.9,0.7c-0.3,0.5-0.4,1.4-0.4,2.7l0,0.5v3.9h-2.4V159.7z"/>
	<path class="st0" d="M245.2,155.7c0.4,0,0.8,0.2,1.1,0.5s0.5,0.7,0.5,1.1c0,0.4-0.1,0.8-0.4,1.1c-0.3,0.3-0.7,0.5-1.1,0.5
		c-0.4,0-0.8-0.2-1.1-0.5c-0.3-0.3-0.5-0.7-0.5-1.1c0-0.4,0.1-0.8,0.4-1.1C244.5,155.9,244.8,155.7,245.2,155.7z M244,159.7h2.4v9.6
		H244V159.7z"/>
	<path class="st0" d="M258.2,159.7h2.4v1c0.5-0.5,1-0.8,1.5-1c0.4-0.2,0.9-0.3,1.4-0.3c0.9,0,1.8,0.3,2.4,1c0.6,0.6,0.8,1.4,0.8,2.5
		v6.3h-2.4v-4.2c0-1.1-0.1-1.9-0.2-2.3c-0.1-0.4-0.3-0.7-0.5-0.9s-0.6-0.3-0.9-0.3c-0.5,0-0.9,0.2-1.2,0.5c-0.3,0.3-0.6,0.8-0.7,1.3
		c-0.1,0.3-0.1,0.9-0.1,1.9v3.8h-2.4V159.7z"/>
	<path class="st0" d="M278.7,156h2.4v7.6l3.5-3.9h3l-4.1,4.6l4.6,5h-3l-4.1-4.4v4.4h-2.4V156z"/>
</g>
</svg>
