<?xml version="1.0" encoding="utf-8"?>
<!-- Generator: Adobe Illustrator 22.1.0, SVG Export Plug-In . SVG Version: 6.00 Build 0)  -->
<svg version="1.1" id="Layer_1" xmlns="http://www.w3.org/2000/svg" xmlns:xlink="http://www.w3.org/1999/xlink" x="0px" y="0px"
	 viewBox="0 0 251 125" style="enable-background:new 0 0 251 125;" xml:space="preserve">
<style type="text/css">
	.st0{fill:#FFFFFF;}
</style>
<g>
	<path class="st0" d="M24.7,26.3c-0.4,0-0.8,0-1.2-0.1c-0.9-0.1-1.8-0.1-2.6-0.1c-0.8,0-1.5-0.1-2.1-0.2c-0.6,0-1.1-0.1-1.5-0.2
		c-0.3-0.1-0.6-0.3-1-0.4c-0.3-0.1-0.4-0.4-0.4-0.7c0-1.3,1.7-2,5-1.9h4.8c0.5,0.1,1.1,0.1,1.7,0.1c0.6,0,1.2,0,1.8,0s1.2,0,1.8,0.1
		c0.6,0,1.2,0.1,1.8,0.1c2.4,0.1,4.5,0.3,6.4,0.6c1.9,0.3,2.8,0.7,2.9,1.2c0.1,0.2,0,0.4-0.2,0.6c-0.1,0.1-0.4,0.3-0.8,0.5
		c-0.4,0.2-1,0.3-1.7,0.4c-0.7,0.1-1.9,0.2-3.4,0.2c-1.5,0-3.2,0-5.1-0.1c0.1,0.6,0.2,1.3,0.3,2.1c0.1,1.2,0.3,3,0.4,5.3
		c0.1,2.3,0.2,5,0.2,8c0,3,0.1,6.1,0.1,9.5c0,3.3,0,6.6-0.1,9.8c-0.1,3.2-0.2,6.2-0.3,9c-0.1,2.8-0.3,5.2-0.5,7.1
		c-0.1,1.3-0.2,2.5-0.5,3.6c-0.2,0.9-0.5,1.8-0.8,2.5c-0.4,0.7-0.8,1.1-1.4,1.1c-1.7,0-2.7-1-3-2.9c-0.3-2-0.4-5.1-0.3-9.5
		c0-1.3,0-3,0.1-5.4c0-2.3,0.1-4.9,0.1-7.8c0.1-2.9,0.1-5.9,0.2-9c0.1-3.2,0.2-6.2,0.3-9.2c0.1-3,0.3-5.7,0.5-8.1
		c0.2-2.5,0.4-4.5,0.7-6H24.7z"/>
	<path class="st0" d="M67.6,56c0.1,0.1,0.1,0.3,0,0.5c-0.1,0.5-0.4,0.8-0.9,1.1c-2.9,1.7-6.1,2.9-9.4,3.4c-0.1,1.8-0.2,4.1-0.5,6.9
		c-0.3,2.8-0.9,5.4-1.6,8c-0.8,2.6-2,4.8-3.5,6.6c-1.5,1.8-3.5,2.7-6,2.6c-1.7-0.1-3.2-0.5-4.4-1.4c-1.2-0.8-2.1-1.9-2.9-3.1
		c-0.7-1.2-1.2-2.6-1.5-4.1c-0.3-1.5-0.5-2.9-0.6-4.4c-0.1-1.4-0.1-2.7,0-3.8c0.1-1.1,0.3-2,0.4-2.6c0.3-1.3,0.6-2.4,1-3.4
		c0.3-0.9,0.8-1.6,1.5-2.3c0.6-0.7,1.4-1,2.4-0.9c1.5,0.1,2.3,0.9,2.3,2.2c0,1.3-0.2,3.2-0.5,5.5c-0.2,1.3-0.3,2.8-0.4,4.5
		c0,1.7,0,3.3,0.2,4.9c0.2,1.6,0.5,3,0.9,4.1c0.4,1.1,1,1.7,1.8,1.8c0.9,0.1,1.7-0.4,2.4-1.3c0.7-0.9,1.4-2.3,1.9-4.1
		c0.5-1.8,0.9-4,1.2-6.6c0.3-2.6,0.6-5.5,0.7-8.7c-2.5-0.1-4.8-0.5-6.9-1.2s-3.8-1.6-5.1-2.8c-1.3-1.1-2.2-2.7-2.8-4.7
		s-0.5-3.9,0-5.8c0.5-1.9,1.5-3.4,3.1-4.6c1.6-1.2,3.9-1.7,6.8-1.5c2.3,0.2,4.2,1.1,5.5,2.6c1.3,1.6,2.3,3.3,3,5.2
		c0.7,1.9,1.1,3.7,1.3,5.5c0.2,1.8,0.3,3,0.3,3.5c1.6-0.1,3.1-0.3,4.6-0.6c1.5-0.3,2.8-0.8,4-1.4c0.2-0.1,0.4-0.1,0.7-0.2
		c0.2,0,0.4,0,0.6,0C67.4,55.5,67.5,55.7,67.6,56z M52.2,57.7c0-0.5,0-1.4,0-2.9c0-1.5-0.2-3-0.5-4.6c-0.3-1.6-0.8-3.1-1.5-4.5
		c-0.7-1.4-1.8-2.2-3.2-2.5c-1.9-0.5-3.4-0.2-4.4,0.8s-1.6,2.3-1.7,3.8c-0.1,1.5,0.1,3.1,0.8,4.8c0.7,1.6,1.8,2.9,3.3,3.7
		c0.7,0.4,1.8,0.7,3,1C49.3,57.4,50.7,57.6,52.2,57.7z"/>
	<path class="st0" d="M90.7,66.9c0,0.1,0,0.2-0.1,0.4c-0.1,0.1-0.1,0.2-0.2,0.4c-0.3,0.5-0.9,1.1-2,2c-1.1,0.9-2.7,1.7-5,2.4
		c-0.4,2.3-0.9,4.1-1.6,5.6c-0.7,1.5-1.4,2.7-2.3,3.6c-0.9,0.9-1.8,1.5-2.7,1.9c-0.9,0.4-1.9,0.6-2.8,0.6c-0.5,0-1,0-1.5-0.1
		c-0.4-0.1-0.8-0.2-1.3-0.3c-0.5-0.2-0.9-0.5-1.3-1c-0.5-0.5-0.8-1.3-1.1-2.2c-0.3-0.9-0.3-2.1,0-3.4c0.3-1.2,0.7-2.2,1.3-3
		c0.6-0.8,1.4-1.4,2.2-1.9c0.8-0.5,1.8-0.8,2.8-1c1-0.2,2.1-0.5,3.2-0.7c0.3-2.1,0.4-4.2,0.4-6.3c0-2.2-0.1-4.1-0.4-5.9
		c-0.3-1.7-0.7-3.1-1.3-4.2s-1.4-1.6-2.3-1.6c-0.9,0.1-1.8,0.5-2.5,1.3c-0.7,0.8-1.3,1.8-1.8,2.9c-0.5,1.2-0.9,2.5-1.2,3.9
		c-0.3,1.4-0.6,2.8-0.9,4.1c-0.2,1.3-0.4,2.5-0.5,3.6c-0.1,1.1-0.1,1.9-0.1,2.4c0,3.3,0,6.9,0,10.9c0,4-0.1,7.7-0.3,11.1
		c-0.2,3.4-0.5,6.4-1,8.8c-0.5,2.4-1.1,3.6-1.9,3.7c-0.5,0.1-1,0-1.4-0.3c-0.3-0.2-0.6-0.6-1-1.1c-0.3-0.5-0.5-1.4-0.6-2.5
		c-0.1-1.1-0.1-2.6-0.2-4.8c-0.1-2.1-0.1-4.5-0.2-7.2c-0.1-2.7-0.1-5.6-0.1-8.6c0-3,0-6,0-8.8c0-2.9,0.1-5.6,0.2-8.1
		c0.1-2.5,0.2-4.6,0.5-6.3c0.1-1.1,0.2-2.2,0.4-3.1c0.1-0.8,0.4-1.5,0.6-2.2c0.3-0.7,0.7-1,1.1-1c2,0,3.2,1.9,3.6,5.6
		c0.7-1.9,1.7-3.5,2.9-4.9c1.2-1.4,2.7-2.1,4.6-2.1c2.1-0.1,3.7,0.4,5,1.5c1.3,1.1,2.2,2.5,2.9,4.4c0.6,1.9,1,4,1.1,6.4
		c0.1,2.4,0,4.9-0.2,7.5c0.9-0.3,1.8-0.6,2.6-0.9c0.8-0.4,1.6-0.9,2.2-1.7c0.3-0.3,0.6-0.6,0.9-0.7c0.1-0.1,0.3-0.1,0.4-0.1
		c0.4,0,0.6,0.2,0.7,0.7V66.9z M72.8,80.6c0.3,0.1,0.7,0.1,1,0c0.3-0.1,0.6-0.3,0.9-0.4c0.3-0.2,0.5-0.4,0.7-0.7
		c1-1.5,1.8-3.7,2.4-6.4c-1,0.2-2.1,0.6-3.4,1.2c-1.3,0.6-2.1,1.6-2.5,2.9c-0.2,0.5-0.3,1-0.3,1.5c0,0.4,0.1,0.8,0.2,1.2
		C71.9,80.3,72.3,80.5,72.8,80.6z"/>
	<path class="st0" d="M130.5,59.2c0.2,0.3,0.4,0.6,0.7,1.1c0.2,0.4,0.4,0.9,0.7,1.6c0.3,0.6,0.5,1.4,0.7,2.3
		c0.1,0.7,0.2,1.4,0.3,2.1c0.1,0.7,0.1,1.4,0.2,2.1c0.1,0.7,0.1,1.4,0.1,2.1c0,0.7,0,1.3,0,2c0.1,1.1,0.2,2.2,0.3,3.3
		c0.1,0.9,0.3,1.9,0.4,2.8c0.1,0.9,0.3,1.6,0.6,2.2c0.1,0.4,0.3,0.8,0.6,1.1c0.2,0.3,0.4,0.7,0.7,1c0.2,0.3,0.5,0.7,0.8,1l0.2,0.2
		c0.1,0.1,0.1,0.3,0.1,0.6c-0.1,0.4-0.3,0.6-0.7,0.7c-0.5,0.2-1,0.2-1.5-0.1c-0.7-0.3-1.3-0.7-1.8-1.2c-0.4-0.5-0.8-1.1-1.1-1.6
		c-0.3-0.6-0.6-1.2-0.9-1.9c-0.1-0.3-0.2-0.7-0.4-1.2c-0.1-0.4-0.2-0.9-0.4-1.5c-0.1-0.5-0.2-1.1-0.2-1.8c0-0.7-0.1-1.4-0.2-2.1
		c-0.1-0.7-0.1-1.5-0.1-2.2c0-0.8,0-1.5,0-2.2c-0.1-0.8-0.1-1.6-0.2-2.4c-0.1-0.8-0.2-1.5-0.3-2.2c-0.1-0.9-0.3-1.7-0.5-2.2
		c-0.2-0.6-0.4-1-0.7-1.4c-0.3-0.4-0.6-0.7-0.9-0.9c-0.3-0.2-0.7-0.3-1.1-0.4c-0.4-0.1-0.8-0.1-1.1-0.1h-1.1
		c-0.1,3.3-0.2,6.5-0.3,9.4c-0.1,2.9-0.3,5.4-0.4,7.5c-0.1,1.4-0.2,2.6-0.4,3.7c-0.1,0.9-0.4,1.8-0.7,2.5c-0.3,0.8-0.7,1.1-1.2,1.1
		c-1.3,0-2.3-1-2.9-2.9c-0.6-2-0.9-5.2-0.8-9.8c0-1.6,0-4.1,0-7.4c0-3.3,0-7,0-10.9c0-3.9,0.1-7.9,0.2-11.9c0.1-4,0.4-7.5,0.7-10.5
		c0.1-1.1,0.3-2,0.4-2.7c0.2-0.7,0.4-1.2,0.6-1.6c0.2-0.4,0.5-0.6,0.8-0.7c0.3-0.1,0.5-0.2,0.8-0.2c0.4-0.1,0.8,0,1.1,0.3
		c0.3,0.3,0.6,0.7,0.9,1.2c0.3,0.6,0.5,1.4,0.6,2.5c0.1,0.5,0.1,1,0.2,1.6c0,0.6,0,1.3,0,2c0.2-0.7,0.5-1.5,0.8-2.3
		c0.3-0.7,0.7-1.5,1.2-2.4c0.5-0.9,1.1-1.8,1.8-2.7c0.5-0.6,1-1.1,1.7-1.6c0.5-0.4,1.2-0.8,2-1.1c0.8-0.3,1.6-0.5,2.6-0.4
		c0.6,0,1.2,0.2,1.9,0.6c0.5,0.3,1.1,0.9,1.7,1.6c0.6,0.8,1.2,1.8,1.7,3.1c0.3,1,0.5,2.1,0.8,3.3c0.1,1,0.2,2.2,0.3,3.5
		c0.1,1.4,0.1,2.9,0,4.5c-0.3,2.4-0.7,4.7-1.4,6.9c-0.5,1.9-1.3,3.9-2.3,6c-1,2.1-2.3,3.9-4,5.4c-0.3,0.3-0.6,0.6-0.9,0.8
		C131,58.9,130.8,59.1,130.5,59.2z M127.1,30.7c-0.5,1.1-1,2.3-1.4,3.6c-0.4,1.2-0.8,2.4-1.1,3.4c-0.3,1.2-0.6,2.4-0.9,3.5
		c0.1,4.8,0.1,10,0,15.7c0.3,0.1,0.6,0.2,0.9,0.2c0.3,0,0.5,0.1,0.7,0.1c0.3,0,0.5,0,0.7-0.1c1.4-0.2,2.6-1.3,3.7-3.3
		c1.1-2,2-4.3,2.7-7c0.7-2.7,1.1-5.4,1.3-8.2c0.2-2.8,0.1-5.2-0.3-7c-0.3-1.5-0.8-2.6-1.2-3.2c-0.5-0.6-1-0.9-1.5-0.9
		c-0.5,0-1,0.2-1.5,0.5c-0.4,0.3-0.8,0.7-1.1,1.2C127.7,29.6,127.4,30.1,127.1,30.7z"/>
	<path class="st0" d="M170.1,65.9c1,0.2,1.2,1.3,0.6,3.4c-0.1,0.3-0.3,1-0.5,2c-0.2,1-0.5,2.1-0.9,3.3c-0.4,1.2-0.8,2.5-1.4,3.9
		c-0.5,1.3-1.1,2.5-1.9,3.6s-1.5,2-2.4,2.6c-0.9,0.7-1.8,1-2.8,0.9c-1.6-0.1-2.9-0.7-3.9-1.8c-1-1-1.7-2.9-2.2-5.5
		c-0.6,1.2-1.5,2.2-2.5,3c-1.1,0.8-2.6,1.2-4.6,1.2c-1.9-0.1-3.5-0.6-4.8-1.6c-1.3-1-2.3-2.2-3.1-3.6c-0.8-1.4-1.3-2.9-1.6-4.4
		c-0.3-1.5-0.5-2.8-0.5-3.8c0.1-3,0.5-5.7,1.2-8.2c0.7-2.1,1.8-4.1,3.2-5.9c1.5-1.8,3.7-2.8,6.5-3.1c0.6-0.1,1.3,0,2,0.1
		c0.5,0.1,1.1,0.3,1.9,0.5c0.7,0.2,1.3,0.6,1.9,1.2c0-0.3,0-0.8,0.1-1.4c0.1-0.7,0.2-1.4,0.4-2.1c0.2-0.7,0.5-1.3,0.9-1.8
		c0.4-0.5,0.9-0.7,1.5-0.6c1.2,0.2,2.1,1,2.6,2.4c0.6,1.4,0.9,2.9,0.9,4.5c0,0.5,0,1.5-0.1,3c0,1.5-0.1,3.1-0.1,5
		c0,1.9-0.1,3.8-0.1,5.9c0,2.1-0.1,4-0.1,5.8c0,1.8,0,3.4,0.1,4.7c0,1.3,0.1,2.2,0.1,2.5c0.1,0.5,0.3,0.9,0.8,1.2
		c0.4,0.2,1,0,1.6-0.7c0.7-0.7,1.4-2,2.3-4c0.9-1.9,1.8-4.8,2.8-8.6c0.1-0.7,0.3-1.4,0.5-1.9c0.1-0.5,0.3-0.9,0.5-1.2
		C169.7,66.1,169.9,65.9,170.1,65.9z M155.4,67.1c0.1-1.3,0-2.6-0.1-3.7c-0.1-1.1-0.2-2.1-0.3-2.9c-0.2-1-0.4-1.9-0.7-2.7
		c-0.3-0.8-0.6-1.5-1-2.2c-0.4-0.7-0.9-1.1-1.6-1.4c-0.8-0.3-1.6-0.2-2.3,0.5c-0.7,0.6-1.4,1.6-2,3c-0.6,1.3-1.1,3-1.5,4.9
		c-0.4,2-0.8,4.1-1,6.4c-0.3,2.9-0.4,5.2-0.1,6.8c0.3,1.6,0.7,2.8,1.2,3.5c0.5,0.9,1.2,1.4,2,1.6c0.8,0,1.5-0.2,2.2-0.5
		c0.7-0.4,1.2-0.9,1.8-1.5s0.9-1.3,1.3-2c0.4-0.8,0.7-1.5,0.9-2.2c0.4-1.3,0.7-2.6,0.9-3.9C155.2,69.4,155.3,68.2,155.4,67.1z"/>
	<path class="st0" d="M153.6,37.2c-0.3,0-0.5,0-0.6-0.1c-0.5-0.1-0.9-0.4-1.2-0.7c-0.4-0.3-0.4-0.8,0.1-1.6c0.3-0.6,0.6-0.9,1.1-0.9
		c0.5,0,1,0,1.7,0.2c0.6,0.2,1.3,0.4,2.1,0.8c0.8,0.3,1.7,0.5,2.7,0.5h9.7c0.1-1.3,0.2-2.5,0.3-3.7c0.1-0.8,0.2-1.6,0.4-2.3
		c0.1-0.5,0.3-1,0.6-1.5c0.3-0.5,0.7-0.8,1.2-0.9c1.3-0.1,2.3,0.4,2.9,1.4c0.6,1.1,0.9,3.4,0.8,6.9c2-0.1,4-0.1,6-0.1s4,0,6,0
		c3.2,0.1,6.4,0.2,9.6,0.2c3.2,0.1,6.4,0,9.6-0.4c1.1-0.1,1.8,0,2.2,0.4c0.4,0.4,0.5,0.9,0.5,1.4c-0.1,0.5-0.2,0.9-0.6,1.3
		c-0.3,0.4-0.6,0.5-0.9,0.2c-0.3-0.2-0.9-0.4-1.6-0.5c-0.7-0.2-1.4-0.3-2.2-0.4c-0.8-0.1-1.6-0.1-2.3-0.2c-0.7-0.1-1.2-0.1-1.5-0.1
		c-2.1,0.1-4.3,0.1-6.4,0c-2.1-0.1-4.3-0.1-6.4-0.2c-2,0-4,0-6,0s-4,0-6,0.1c-0.1,2.3-0.1,5.5,0,9.8c0.1,4.3,0,9-0.2,14
		c0,0.8,0,1.8,0,3.1c0,1.3-0.1,2.7-0.1,4.2c0,1.5-0.1,3.1-0.1,4.7c0,1.6,0,3.1,0,4.5c0,1.4,0,2.5,0,3.5c0,1,0.1,1.7,0.1,2
		c0.1,0.5,0.3,0.9,0.8,1c0.4,0.1,1-0.3,1.6-1.2c0.7-0.9,1.4-2.3,2.3-4.3c0.9-2,1.8-5,2.8-8.8c0.2-0.7,0.4-1.4,0.6-1.9
		c0.1-0.5,0.3-0.9,0.5-1.2c0.2-0.4,0.4-0.5,0.7-0.5c1,0.2,1.2,1.3,0.5,3.4c-0.1,0.5-0.4,1.8-0.9,3.8c-0.5,2-1.1,4.1-2,6.2
		c-0.9,2.2-1.9,4.1-3.1,5.8c-1.2,1.7-2.6,2.5-4.1,2.5c-1-0.1-2-0.4-2.8-1.1c-0.8-0.7-1.5-1.9-2-3.6s-0.9-4.2-1.1-7.4
		c-0.2-3.1-0.3-7.3-0.1-12.4l0.1-10.1c0-3.1,0-6,0-8.6c0-2.6,0.1-5.1,0.2-7.2c-2.3,0.1-4.7,0.1-7,0.1c-2.4,0-4.8,0-7.1,0H153.6z"/>
	<path class="st0" d="M204.6,65.9c0.9,0.2,1.1,1.3,0.6,3.4c-0.1,0.5-0.3,0.9-0.4,1.4c-0.1,0.4-0.2,0.8-0.4,1.2
		c-0.1,0.4-0.2,0.8-0.4,1.1c-0.7,2.2-1.8,4.3-3.2,6.4c-1.4,2.1-3.2,3.5-5.5,4.2c-1.7,0.5-3.6,0.6-5.6,0.1c-1.1-0.3-2.1-0.8-2.9-1.5
		c-0.8-0.7-1.5-1.6-2-2.6c-0.5-1-1-2.2-1.2-3.4c-0.3-1.2-0.5-2.5-0.6-3.8c-0.3-2.9-0.3-6.2,0-9.9c0.4-2.7,1-4.9,1.8-6.8
		c0.7-1.6,1.6-2.9,2.8-4c1.2-1.1,2.7-1.3,4.5-0.5c1.1,0.5,2,1.3,2.6,2.6c0.6,1.3,0.9,2.7,1.1,4.4c0.2,1.6,0.1,3.4-0.2,5.1
		c-0.3,1.8-0.6,3.5-1.1,5.1c-0.5,1.6-1.1,2.9-1.9,4.1c-0.8,1.2-1.6,1.9-2.5,2.1c0.2,1.6,0.6,3,1.1,4.2c0.5,1.2,1.2,1.9,2.2,2
		c1.1,0.1,2-0.1,2.9-0.6c0.9-0.5,1.6-1.1,2.3-1.9c0.7-0.8,1.3-1.7,1.8-2.6c0.5-0.9,1-1.8,1.3-2.7c0.1-0.3,0.2-0.7,0.4-1.1
		c0.1-0.4,0.2-0.7,0.4-1c0.1-0.4,0.3-0.8,0.4-1.3c0.1-0.7,0.3-1.4,0.6-1.9c0.1-0.5,0.3-0.9,0.5-1.2
		C204.2,66.1,204.4,65.9,204.6,65.9z M189.8,66.6c-0.1,0.5-0.1,1-0.1,1.5c0,0.5,0,1,0,1.6c0,0.6,0,1.3,0.1,2c0.7-0.5,1.4-1.5,2-3
		c0.7-1.5,1.1-3.8,1.2-7c0-1.1,0-2-0.1-2.9c-0.1-0.7-0.2-1.5-0.3-2.2c-0.1-0.7-0.4-1.2-0.7-1.5c-0.3,0-0.5,0.4-0.8,1.2
		c-0.3,0.7-0.5,1.9-0.8,3.5C190.2,61.4,190,63.6,189.8,66.6z"/>
	<path class="st0" d="M235.8,65.9c1,0.2,1.2,1.3,0.6,3.4c-0.1,0.5-0.4,1.7-0.9,3.6c-0.5,1.8-1.1,3.7-1.9,5.6c-0.8,1.9-1.8,3.6-3,5.1
		c-1.2,1.5-2.5,2.1-4,2c-0.7-0.1-1.4-0.2-2.1-0.5c-0.6-0.2-1.2-0.7-1.8-1.4c-0.5-0.7-1-1.7-1.5-3c-0.4-1.3-0.8-3.1-1-5.2
		c-0.5,1.5-1.3,2.8-2.4,3.8c-1.1,1-2.8,1.5-5.1,1.4c-1.9-0.1-3.5-0.7-4.9-2c-1.3-1.3-2.3-2.8-3-4.5c-0.7-1.8-1.2-3.6-1.5-5.5
		c-0.3-1.9-0.5-3.5-0.5-4.9c0-3.2,0.4-6.1,1.1-8.6c0.3-1.1,0.7-2.1,1.2-3.1c0.5-1,1.2-2,1.9-2.8c0.7-0.8,1.6-1.5,2.7-2.1
		c1-0.5,2.2-0.8,3.6-0.9c0.9-0.1,1.7,0,2.5,0.3c0.7,0.2,1.5,0.6,2.2,1.1c0.8,0.5,1.5,1.3,2,2.3c0-3.7,0.1-7.2,0.2-10.6
		c0.1-3.4,0.3-6.1,0.5-8.3c0.1-1.2,0.2-2.3,0.5-3.2c0.2-0.8,0.5-1.5,0.8-2.1c0.3-0.6,0.8-0.9,1.4-0.8c0.9,0.2,1.6,0.5,2.1,0.9
		c0.5,0.4,0.9,1.1,1.1,1.9c0.2,0.8,0.3,1.8,0.3,3.1c0,1.3,0,2.8-0.1,4.7c-0.1,1.1-0.1,2.8-0.1,4.9c0,2.2,0,4.6,0,7.3
		c0,2.7,0,5.5,0,8.5c0,3-0.1,5.8-0.2,8.5c0,1.5,0,3.2,0,5c0,1.8-0.1,3.5-0.1,5.1c0,1.6,0,3,0,4.2c0,1.2,0.1,2,0.2,2.4
		c0.1,0.5,0.3,0.9,0.8,1.2c0.4,0.2,1,0,1.7-0.7c0.7-0.7,1.4-2,2.3-4c0.9-1.9,1.8-4.8,2.8-8.6c0.1-0.7,0.3-1.4,0.5-1.9
		c0.1-0.5,0.3-0.9,0.5-1.2C235.4,66.1,235.6,65.9,235.8,65.9z M218.4,74.4c0.3-0.5,0.5-1.1,0.7-1.7c0.2-0.6,0.4-1.2,0.5-1.7
		c0.1-0.6,0.2-1.2,0.3-1.8c0.1-1.1,0.2-2.3,0.3-3.4c0.1-1.1,0.1-2.2,0.1-3.1c0-1.1-0.1-2-0.2-2.9c0-0.3-0.1-0.9-0.2-1.9
		c-0.1-1-0.3-2.1-0.6-3.3c-0.3-1.2-0.7-2.3-1.2-3.3c-0.5-1-1.1-1.8-1.9-2.1c-1.7-0.7-3.1,0-4.2,2.3c-1.1,2.3-1.9,6.4-2.1,12.2
		c-0.2,3.5-0.1,6.2,0.2,8.1c0.3,1.9,0.7,3.4,1.2,4.3c0.5,1.1,1.1,1.8,1.8,2c1.1,0.3,2.2,0.1,3.1-0.6C217,76.6,217.8,75.6,218.4,74.4
		z"/>
</g>
</svg>
