<?xml version="1.0" encoding="utf-8"?>
<!-- Generator: Adobe Illustrator 22.1.0, SVG Export Plug-In . SVG Version: 6.00 Build 0)  -->
<svg version="1.1" id="Layer_1" xmlns="http://www.w3.org/2000/svg" xmlns:xlink="http://www.w3.org/1999/xlink" x="0px" y="0px"
	 viewBox="0 0 150 150" style="enable-background:new 0 0 150 150;" xml:space="preserve">
<style type="text/css">
	.st0{fill:#5A8DAB;}
</style>
<g>
	<path class="st0" d="M73.2,38.3c-8,0-14.6,6.7-14.6,14.7c0,8.2,6.6,14.9,14.7,14.7c8.3-0.2,14.6-6.5,14.6-14.5
		C87.9,44.1,81,38.6,73.2,38.3z"/>
	<path class="st0" d="M62.3,79c-0.1-0.1-0.3-0.3-0.4-0.4c-1.6-1.8-3.7-1.8-5.7-1.4c-0.8,0.2-1.5,1.5-2,2.5c-2.7,5.5-5.4,11-8,16.5
		c-0.3,0.6-0.5,1.2-0.9,2.3c2.4-0.3,4.4-0.5,6.3-0.8c1.7-0.3,2.8,0,3.8,1.5c1.2,1.8,2.5,3.5,4.1,5.7c3.8-7.8,7.3-15.1,10.9-22.7
		C65.5,82.7,65.3,82.6,62.3,79z"/>
	<path class="st0" d="M81.5,77.8c1.8-2.8,4.3-4.2,7.7-4c1.7,0.1,2.7-0.7,2.7-2.3c0.1-3.7,2.2-5.9,5.2-7.5c1.1-0.6,1.7-1.5,1.1-2.7
		c-1.8-3.5-1.1-6.5,1.1-9.6c0.4-0.6,0.3-2.2-0.3-2.7c-2.8-2.6-4.5-5.5-3.3-10c-0.6-0.5-1.2-1.6-2-1.7c-3.4-0.7-5.6-2.6-7-5.8
		c-0.6-1.4-1.5-2.1-3.2-1.6c-3.4,0.9-6.3,0.1-8.8-2.5c-1-1.1-2.2-1-3.2,0.1c-2.5,2.6-5.5,3-8.7,2.2c-1.6-0.4-2.5,0.1-3,1.6
		c-1.2,3.4-3.5,5.4-7.1,6.1c-1.1,0.2-1.9,0.9-1.6,2.2c0.8,3.7-0.3,6.8-3.3,9.1c-1.2,0.9-1.2,2-0.4,3c2.2,2.8,2.4,5.7,1.2,8.9
		c-0.5,1.4-0.2,2.5,1.3,3.4c2.8,1.7,4.6,4.1,4.8,7.5c0.1,1.8,0.9,2.8,2.8,2.6c3.3-0.3,5.8,1,7.6,3.7c1.1,1.6,2.2,1.8,3.9,0.9
		c2.8-1.5,5.8-1.8,8.7,0C79.4,79.8,80.6,79.3,81.5,77.8z M55.3,53c-0.1-9.4,7.8-17.5,16.9-17.9c10.3-0.5,18.8,7.8,19,17.6
		c0.2,9.8-7.8,18-17.2,18.4C64.1,71.4,55.1,63.4,55.3,53z"/>
	<path class="st0" d="M73.2,9.3c-32.3,0-58.5,26.2-58.5,58.5s26.2,58.5,58.5,58.5c3.6,0,7.2-0.3,10.7-1l27.7,18.9V112
		c12.4-10.7,20.2-26.6,20.2-44.2C131.8,35.5,105.6,9.3,73.2,9.3z M103.2,102.2c-2.4-0.3-4.9-0.6-7.3-1c-1.4-0.3-2.5,0-3.3,1.3
		c-1.3,2-2.8,3.9-4.2,5.8c-1.5,2-2.7,1.9-3.8-0.3c-3.4-7.2-6.8-14.5-10.3-21.7C74,85.6,73.7,85,73.1,84c-1.9,4.1-3.7,7.8-5.4,11.4
		c-2,4.1-3.9,8.3-5.9,12.4c-1.1,2.3-2.4,2.4-4,0.3c-1.4-1.9-2.9-3.8-4.2-5.8c-0.8-1.2-1.7-1.4-3-1.2c-2.4,0.4-4.7,0.8-7.1,1
		c-0.8,0.1-2-0.1-2.4-0.7c-0.4-0.5-0.1-1.7,0.2-2.4c3.3-6.9,6.6-13.7,10-20.6c0.9-1.7,1.4-3.2,0.8-5.4c-0.7-2.8-1.6-5-4.2-6.5
		c-2.5-1.5-3.1-3.5-2.2-6.3c0.9-2.6,0.7-4.8-1-7.1c-1.7-2.3-1.4-4.8,0.8-6.6c2.1-1.7,2.9-3.7,2.6-6.3c-0.2-1.9-0.1-3.7,1.6-4.9
		c0.6-0.4,1.3-1,2-1.1c2.9-0.3,4.4-2,5.3-4.7c0.8-2.6,2.9-3.8,5.6-3.2c3,0.7,5.3,0.3,7.6-2c1.7-1.8,4.5-1.6,6.3,0.2
		c1.8,1.8,3.8,2.1,6.2,1.5c3.2-0.8,5.2,0.2,6.5,3.3c1,2.4,2.5,3.9,5.1,4.5c3.3,0.8,4.6,3.1,4,6.6c-0.4,2,0.3,3.6,1.8,5
		c3.4,3,3.7,4.8,1.3,8.5c-1.1,1.7-1.2,3.5-0.5,5.3c1.3,3.9,0.7,5.7-2.9,7.6c-1.8,0.9-3,2.2-2.9,4.4c0,0.6-0.1,1.2-0.4,1.7
		c-1.5,2.1-0.3,3.9,0.6,5.7c3.2,6.6,6.3,13.2,9.4,19.8c0.1,0.3,0.3,0.6,0.4,0.9C105.9,101.4,105.2,102.4,103.2,102.2z"/>
	<path class="st0" d="M92.1,79.4c-1.2-2.5-3.1-3.2-5.6-2c-0.9,0.5-1.7,1.4-2.3,2.2c-2,2.5-3.9,3.2-6.9,2.4c-0.3-0.1-0.6-0.1-1.4-0.3
		c3.7,7.8,7.1,15.3,10.8,23.1c1.6-2.2,3-3.9,4.2-5.8c0.9-1.5,2-1.7,3.6-1.4c2.1,0.4,4.2,0.6,6.6,0.9c-0.4-0.9-0.6-1.5-0.9-2.1
		C97.6,90.8,94.8,85.1,92.1,79.4z"/>
</g>
</svg>
